<?xml version="1.0" encoding="UTF-8" standalone="no"?>
<svg
   width="124.78696"
   height="34.188679"
   viewBox="0 0 124.78696 34.188679"
   fill="none"
   version="1.1"
   id="svg33"
   sodipodi:docname="logo-white-2.svg"
   inkscape:export-filename="logo-white.svg"
   inkscape:export-xdpi="96"
   inkscape:export-ydpi="96"
   xmlns:inkscape="http://www.inkscape.org/namespaces/inkscape"
   xmlns:sodipodi="http://sodipodi.sourceforge.net/DTD/sodipodi-0.dtd"
   xmlns="http://www.w3.org/2000/svg"
   xmlns:svg="http://www.w3.org/2000/svg">
  <sodipodi:namedview
     id="namedview33"
     pagecolor="#ffffff"
     bordercolor="#000000"
     borderopacity="0.25"
     inkscape:showpageshadow="2"
     inkscape:pageopacity="0.0"
     inkscape:pagecheckerboard="0"
     inkscape:deskcolor="#d1d1d1"
     showgrid="false" />
  <path
     d="M 13.2666,11.9468 1.70898,17.663 22.418,11.8739 C 26.5649,10.1845 29.7033,8.9234202 29.7033,8.9223902 27.7531,9.2592402 20.1679,10.6652 13.2666,11.9468 Z"
     fill="url(#paint0_linear_2086_924)"
     id="path7"
     style="fill:url(#paint0_linear_2086_924)" />
  <path
     d="m 3.29834,24.1329 c 0,0 0.64699,2.6342 1.16561,4.7498 0.00477,-8e-4 0.00962,-8e-4 0.01438,0 0.19852,0.6475 0.62608,1.2005 1.20276,1.5557 0.57667,0.3551 1.26297,0.4881 1.93055,0.374 0.00719,0.0123 26.38816,-6.4053 26.38816,-6.4053 l -1.3515,-5.5179 z"
     fill="url(#paint1_radial_2086_924)"
     id="path8"
     style="fill:url(#paint1_radial_2086_924)" />
  <path
     d="m 20.9792,27.5682 -0.0863,0.0513 -0.2054,4.2794 c 0,0 12.2847,-6.9731 13.248,-7.4805 -0.6994,0.1705 -6.8017,1.6545 -12.9563,3.1498 z"
     fill="url(#paint2_linear_2086_924)"
     id="path9"
     style="fill:url(#paint2_linear_2086_924)" />
  <path
     d="m 1.70898,17.663 1.39053,5.6668 c 0,0 28.90729,-7.0461 28.92269,-6.9834 0.0154,0.0626 -1.6431,-6.7010398 -1.6431,-6.7010398 z"
     fill="url(#paint3_linear_2086_924)"
     id="path10"
     style="fill:url(#paint3_linear_2086_924)" />
  <path
     d="M 3.29639,24.134 24.486,20.3465 c 4.264,-2.2717 7.5308,-4.0052 7.5359,-3.996 -0.0113,-0.0472 -14.4885,3.4671 -22.95288,5.5251 z"
     fill="url(#paint4_linear_2086_924)"
     id="path11"
     style="fill:url(#paint4_linear_2086_924)" />
  <path
     opacity="0.4"
     d="M 20.8115,27.6103 C 27.5896,25.9589 33.9979,24.403 33.9979,24.403 l -1.3495,-5.5138 -6.2799,1.1214 c -1.2776,3.2617 -3.2237,5.9031 -5.557,7.5997 z"
     fill="#37c4ee"
     id="path12" />
  <path
     d="m 27.1821,17.4925 c 2.8848,-0.6932 4.8371,-1.1553 4.8402,-1.1379 0.0174,0.0688 -1.6432,-6.7010098 -1.6432,-6.7010098 L 27.9708,10.3263 c 0.3451,1.9656 0.2126,4.7836 -0.7887,7.1662 z"
     fill="#f9c02e"
     id="path13" />
  <path
     d="m 28.9339,3.8121402 c -0.3964,-1.37717 -1.5579,-2.34561 -3.1836,-1.95125 l -5.3536,1.31863 c 0.1783,0.35051 0.3261,0.71576 0.4416,1.09168 0.0987,0.10339 0.1694,0.2303 0.2054,0.36868 0.028,0.11295 0.0334,0.23031 0.0161,0.34537 -0.0174,0.11506 -0.0573,0.22557 -0.1174,0.32522 -0.06,0.09966 -0.1392,0.18651 -0.2328,0.25558 -0.0936,0.06908 -0.2,0.11904 -0.3129,0.14702 -0.113,0.02799 -0.2303,0.03345 -0.3454,0.01608 -0.115,-0.01737 -0.2256,-0.05723 -0.3252,-0.11731 -0.0997,-0.06008 -0.1865,-0.1392 -0.2556,-0.23284 -0.0691,-0.09364 -0.119,-0.19997 -0.147,-0.31292 -0.0415,-0.17091 -0.0282,-0.35056 0.038,-0.51349 0.0472,0.13967 0.0904,0.28139 0.1263,0.42722 l 1.1451,-0.28344 c -0.4325,-1.60208 -1.4748,-2.97129 -2.9039,-3.81472099 -1.4291,-0.8434305 -3.1315,-1.094104 -4.7431,-0.698393 -1.6116,0.395711 -3.00427,1.40638399 -3.8802,2.81580399 -0.87592,1.40942 -1.1655,3.10566 -0.80679,4.72586 l 0.97357,-0.23929 c 0,0.01335 0,0.02773 0.00924,0.04108 H 9.27351 c 0.03957,0.1535 0.03725,0.31481 -0.00673,0.46711 -0.04397,0.1523 -0.12799,0.29001 -0.2433,0.3988 -0.1153,0.10878 -0.25767,0.18464 -0.41227,0.21969 -0.15459,0.03504 -0.31576,0.02798 -0.4667,-0.02045 -0.15094,-0.04843 -0.28613,-0.13646 -0.39148,-0.25491 -0.10534,-0.11845 -0.17699,-0.26299 -0.20748,-0.41855 -0.03048,-0.15556 -0.01869,-0.31645 0.03416,-0.4659 0.05284,-0.14946 0.1448,-0.282 0.2663,-0.38382 -0.03133,-0.26519 -0.04745,-0.53195 -0.04827,-0.79899 l -5.69253,1.39669 c 0,0 0,0 0,0.00616 H 2.09802 c -0.70023,0.17224 -1.30507899,0.61203 -1.68482799,1.22504 -0.379748,0.61301 -0.5041503,1.3504198 -0.3465257,2.0541198 h -0.0061616 l 0.8123383,3.3099 c 0,0 29.29245699,-5.4799198 29.31095699,-5.4131698 l -1.2375,-5.04143 z M 13.289,1.2231302 c 1.0604,-0.25989299 2.1761,-0.17453 3.1846,0.24366 1.0086,0.4182 1.8573,1.14739 2.4227,2.08142 l -9.50161,2.33123 c 0.06869,-1.08966 0.48347,-2.12894 1.18391,-2.96646 0.7005,-0.83753 1.65,-1.42955 2.7104,-1.68985 z"
     fill="url(#paint5_radial_2086_924)"
     id="path14"
     style="fill:url(#paint5_radial_2086_924)" />
  <defs
     id="defs33">
    <linearGradient
       id="paint0_linear_2086_924"
       x1="16.5334"
       y1="17.655001"
       x2="14.6038"
       y2="7.4493799"
       gradientUnits="userSpaceOnUse">
      <stop
         offset="0.46"
         stop-color="#F1634C"
         id="stop14" />
      <stop
         offset="0.49"
         stop-color="#E8574E"
         id="stop15" />
      <stop
         offset="0.55"
         stop-color="#D03652"
         id="stop16" />
      <stop
         offset="0.59"
         stop-color="#BE1E55"
         id="stop17" />
    </linearGradient>
    <radialGradient
       id="paint1_radial_2086_924"
       cx="0"
       cy="0"
       r="1"
       gradientUnits="userSpaceOnUse"
       gradientTransform="matrix(10.542211,-2.5874646,2.5874646,10.542211,18.6502,24.2605)">
      <stop
         stop-color="#20C1E9"
         id="stop18" />
      <stop
         offset="1"
         stop-color="#0CAEC7"
         id="stop19" />
    </radialGradient>
    <linearGradient
       id="paint2_linear_2086_924"
       x1="27.504499"
       y1="28.9387"
       x2="26.541201"
       y2="25.014"
       gradientUnits="userSpaceOnUse">
      <stop
         offset="0.3"
         stop-color="#018EA2"
         id="stop20" />
      <stop
         offset="0.41"
         stop-color="#018A9E"
         id="stop21" />
      <stop
         offset="0.53"
         stop-color="#038091"
         id="stop22" />
      <stop
         offset="0.63"
         stop-color="#047280"
         id="stop23" />
    </linearGradient>
    <linearGradient
       id="paint3_linear_2086_924"
       x1="27.0763"
       y1="14.0057"
       x2="5.5678802"
       y2="19.2847"
       gradientUnits="userSpaceOnUse">
      <stop
         stop-color="#FDD309"
         id="stop24" />
      <stop
         offset="1"
         stop-color="#F79420"
         id="stop25" />
    </linearGradient>
    <linearGradient
       id="paint4_linear_2086_924"
       x1="18.2257"
       y1="22.7976"
       x2="17.521601"
       y2="19.6014"
       gradientUnits="userSpaceOnUse">
      <stop
         offset="0.33"
         stop-color="#FFDD0F"
         id="stop26" />
      <stop
         offset="0.45"
         stop-color="#FDD910"
         id="stop27" />
      <stop
         offset="0.56"
         stop-color="#F8CC13"
         id="stop28" />
      <stop
         offset="0.69"
         stop-color="#EFB618"
         id="stop29" />
      <stop
         offset="0.81"
         stop-color="#E3991F"
         id="stop30" />
      <stop
         offset="0.94"
         stop-color="#D37328"
         id="stop31" />
    </linearGradient>
    <radialGradient
       id="paint5_radial_2086_924"
       cx="0"
       cy="0"
       r="1"
       gradientUnits="userSpaceOnUse"
       gradientTransform="matrix(11.101803,-2.7248099,2.7248099,11.101803,14.2255,6.2404502)">
      <stop
         stop-color="#ED3B87"
         id="stop32" />
      <stop
         offset="1"
         stop-color="#DB377D"
         id="stop33" />
    </radialGradient>
  </defs>
  <path
     d="m 119.58545,22.019291 c 0,-0.668959 0.24255,-1.226439 0.72766,-1.672356 0.48428,-0.455319 1.1092,-0.682894 1.87309,-0.682894 0.774,0 1.39808,0.227575 1.87392,0.682894 0.48427,0.445917 0.72684,1.003397 0.72684,1.672356 0,0.668875 -0.24257,1.230972 -0.72684,1.686207 -0.47584,0.446 -1.09992,0.668959 -1.87392,0.668959 -0.76389,0 -1.38881,-0.222959 -1.87309,-0.668959 -0.48511,-0.455235 -0.72766,-1.017332 -0.72766,-1.686207 z"
     fill="#010f1c"
     id="path6-1"
     style="opacity:1;fill:#ffffff;stroke-width:0.840836" />
  <text
     xml:space="preserve"
     style="font-size:34.0419px;opacity:1;fill:#ffffff;stroke-width:1.16053"
     x="37.612293"
     y="26.455324"
     id="text48"
     transform="scale(1.0869642,0.9199935)"><tspan
       sodipodi:role="line"
       id="tspan48"
       x="37.612293"
       y="26.455324"
       style="font-style:normal;font-variant:normal;font-weight:bold;font-stretch:normal;font-family:sans-serif;-inkscape-font-specification:sans-serif;fill:#ffffff;stroke-width:1.16053">Zeenat</tspan><tspan
       sodipodi:role="line"
       x="37.612293"
       y="69.007698"
       id="tspan49"
       style="fill:#ffffff;stroke-width:1.16053" /></text>
  <text
     xml:space="preserve"
     style="font-size:12.8737px;opacity:1;fill:#ffffff;stroke-width:1.07281"
     x="42.741379"
     y="36.48288"
     id="text50"
     transform="scale(1.0728038,0.9321369)"><tspan
       sodipodi:role="line"
       id="tspan50"
       x="42.741379"
       y="36.48288"
       style="font-size:12.8737px;fill:#ffffff;stroke-width:1.07281">Interiors</tspan></text>
</svg>
